<svg width="17px" height="16px" viewBox="0 0 17 16" version="1.1" xmlns="http://www.w3.org/2000/svg" xmlns:xlink="http://www.w3.org/1999/xlink">
    <g id="Page-1" stroke="none" stroke-width="1" fill="none" fill-rule="evenodd">
        <path class="svg-element" d="M16.432021,15.705361 L16.432021,9.62973059 C16.432021,6.37461039 14.6945709,4.8599103 12.3769808,4.8599103 C10.5068706,4.8599103 9.66933059,5.88852036 9.20304057,6.61023041 L9.20304057,5.10840031 L5.68062035,5.10840031 C5.72715035,6.10335037 5.68062035,15.705361 5.68062035,15.705361 L9.20304057,15.705361 L9.20304057,9.7871406 C9.20304057,9.47133058 9.22581057,9.15453056 9.31887057,8.92881055 C9.57330059,8.29620051 10.1524506,7.64082047 11.1256207,7.64082047 C12.4007408,7.64082047 12.9105908,8.61201053 12.9105908,10.0366206 L12.9105908,15.706351 L16.432021,15.705361 L16.432021,15.705361 Z M1.96911012,3.66201022 C3.1967102,3.66201022 3.96198024,2.84724017 3.96198024,1.83051011 C3.93921024,0.791010049 3.1967102,0 1.99188012,0 C0.787050048,0 0,0.791010049 0,1.83051011 C0,2.84823017 0.764280047,3.66201022 1.94733012,3.66201022 L1.96911012,3.66201022 Z M3.73032023,15.705361 L3.73032023,5.10840031 L0.208890013,5.10840031 L0.208890013,15.705361 L3.73032023,15.705361 Z" id="Shape" fill="#000000" fill-rule="nonzero"></path>
    </g>
</svg>