<?xml version="1.0" encoding="utf-8"?>
<!-- Generator: Adobe Illustrator 27.3.1, SVG Export Plug-In . SVG Version: 6.00 Build 0)  -->
<svg version="1.1" id="Layer_1" xmlns="http://www.w3.org/2000/svg" xmlns:xlink="http://www.w3.org/1999/xlink" x="0px" y="0px"
	 viewBox="0 0 52.7 67" style="enable-background:new 0 0 52.7 67;" xml:space="preserve">
<style type="text/css">
	.st0{fill:#E62E41;}
</style>
<g id="Page-1">
	<g id="lbsp-logo-_x28_1_x29_">
		<g id="Group">
			<path id="Path" class="st0" d="M5.9,23.1c0-1.6-1.3-2.9-2.9-2.9c-1.6,0-2.9,1.3-2.9,2.9c0,1.6,1.3,2.9,2.9,2.9
				C4.5,25.9,5.9,24.6,5.9,23.1z"/>
			<path id="Shape" class="st0" d="M52.7,2.9c0-1.6-1.3-2.9-2.9-2.9c-1.5,0-2.7,1.1-2.9,2.5h-5.9C40.7,1.1,39.5,0,38,0
				c-1.6,0-2.9,1.3-2.9,2.9c0,1.5,1.1,2.7,2.5,2.9c0,1.4,0,3,0,4.4c-1.3,0.2-2.3,1.2-2.5,2.4c-1.8,0-4.1,0-5.9,0
				c-0.2-1.3-1.2-2.3-2.5-2.4c0-1.3,0-2.9,0-4.4c1.4-0.2,2.5-1.4,2.5-2.9c0-1.6-1.3-2.9-2.9-2.9c-1.5,0-2.7,1.1-2.9,2.5h-5.9
				C17.4,1.1,16.1,0,14.6,0s-2.7,1.1-2.9,2.5H5.8C5.7,1.1,4.4,0,2.9,0C1.3,0,0,1.3,0,2.9c0,1.6,1.3,2.9,2.9,2.9c0.8,0,1.4-0.3,2-0.7
				c2.2,1.9,5.4,4.7,7.3,6.4c-0.2,0.3-0.4,0.7-0.4,1.1c-1.7,0-4.1,0-5.9,0c-0.2-1.4-1.4-2.5-2.9-2.5C1.3,10.1,0,11.4,0,13
				c0,1.6,1.3,2.9,2.9,2.9c1.5,0,2.7-1.1,2.9-2.5h5.9c0.2,1.4,1.4,2.5,2.9,2.5c1.6,0,2.9-1.3,2.9-2.9c0-1.6-1.3-2.9-2.9-2.9
				c-0.7,0-1.4,0.3-1.9,0.7L5.4,4.4c0.2-0.3,0.3-0.6,0.4-1c1.6,0,3.7,0,5.9,0c0.2,1.4,1.4,2.4,2.9,2.4s2.6-1,2.9-2.4
				c2.3,0,4.4,0,5.9,0c0.2,1.2,1.2,2.2,2.4,2.4c0,1.3,0,2.9,0,4.4c-1.4,0.2-2.5,1.4-2.5,2.9c0,1.6,1.3,2.9,2.9,2.9
				c1.5,0,2.7-1.1,2.9-2.5h5.9c0.2,1.4,1.4,2.5,2.9,2.5c1.6,0,2.9-1.3,2.9-2.9c0-1.5-1.1-2.7-2.5-2.9c0-1.4,0-3,0-4.4
				c1.3-0.2,2.3-1.2,2.5-2.4c1.8,0,4.1,0,5.9,0C47,4.6,48,5.6,49.3,5.8c0,1.3,0,3,0,4.4c-1.4,0.2-2.5,1.4-2.5,2.9
				c0,0.6,0.2,1.1,0.5,1.6c-2.1,1.8-5.3,4.5-7.3,6.3c-0.5-0.4-1.2-0.7-1.9-0.7c-1.5,0-2.7,1.1-2.9,2.5c-1.6,0-3.6,0-5.9,0
				c-0.2-1.4-1.4-2.5-2.9-2.5c-1.5,0-2.7,1.1-2.9,2.5c-2.2,0-4.2,0-5.9,0c-0.2-1.4-1.4-2.5-2.9-2.5c-1.6,0-2.9,1.3-2.9,2.9
				c0,1.6,1.3,2.9,2.9,2.9c0.7,0,1.4-0.3,1.9-0.7c2.3,2,5.4,4.7,7.3,6.3c-0.3,0.5-0.5,1-0.5,1.6c0,0.5,0.2,1,0.4,1.5
				c-1.9,1.7-5,4.2-7.3,6.2c-0.5-0.4-1.2-0.7-1.9-0.7c-1.6,0-2.9,1.3-2.9,2.9c0,1.6,1.3,2.9,2.9,2.9c1.5,0,2.7-1.1,2.9-2.5h5.9
				c0.2,1.4,1.4,2.5,2.9,2.5c1.6,0,2.9-1.3,2.9-2.9c0-1.5-1.1-2.7-2.5-2.9c0-1.3,0-2.8,0-4.1c1.4-0.2,2.5-1.4,2.5-2.9
				c0-1.6-1.3-2.9-2.9-2.9c-0.7,0-1.4,0.3-1.9,0.7c-2.1-1.8-5.4-4.7-7.3-6.3c0.2-0.3,0.4-0.7,0.4-1.1c1.4,0,3.6,0,5.9,0
				c0.2,1.4,1.4,2.5,2.9,2.5c1.5,0,2.7-1.1,2.9-2.5c2.2,0,4.3,0,5.9,0c0.2,1.4,1.4,2.5,2.9,2.5c0.8,0,1.4-0.3,1.9-0.7l7.3,6.4
				c-0.3,0.5-0.5,1-0.5,1.6c0,1.6,1.3,2.9,2.9,2.9c1.6,0,2.9-1.3,2.9-2.9c0-1.5-1.1-2.7-2.5-2.9v-4.4c1.4-0.2,2.5-1.4,2.5-2.9
				c0-1.6-1.3-2.9-2.9-2.9c-1.5,0-2.7,1.1-2.9,2.5c-1.9,0-4.2,0-5.9,0c-0.1-0.4-0.2-0.8-0.4-1.2c2-1.7,5.2-4.5,7.3-6.3
				c0.5,0.4,1.2,0.7,1.9,0.7c1.6,0,2.9-1.3,2.9-2.9c0-1.5-1.1-2.7-2.5-2.9V5.8C51.6,5.6,52.7,4.4,52.7,2.9z M25.9,36
				c0,1.3,0,2.8,0,4.1c-1.3,0.2-2.3,1.2-2.5,2.4c-1.8,0-4.2,0-5.9,0c-0.1-0.4-0.2-0.8-0.4-1.1c1.9-1.6,5.2-4.4,7.3-6.2
				C24.8,35.6,25.3,35.9,25.9,36z M40.9,23.5c1.7,0,4.1,0,5.9,0c0.2,1.2,1.2,2.2,2.5,2.4c0,1.4,0,3,0,4.4c-0.6,0.1-1.1,0.3-1.5,0.7
				c-2-1.7-5.3-4.6-7.3-6.4C40.7,24.2,40.9,23.9,40.9,23.5z"/>
			<path id="Shape_00000096058395023449658750000001070028239873819539_" class="st0" d="M2.5,36v4.1C1.1,40.3,0,41.5,0,43
				c0,1.6,1.3,2.9,2.9,2.9c1.6,0,2.9-1.3,2.9-2.9c0-0.6-0.2-1.1-0.4-1.5l7.3-6.1c0.5,0.4,1.2,0.7,1.9,0.7c1.6,0,2.9-1.3,2.9-2.9
				c0-1.6-1.3-2.9-2.9-2.9c-1.5,0-2.7,1.1-2.9,2.5H5.8c-0.2-1.4-1.4-2.5-2.9-2.5c-1.6,0-2.9,1.3-2.9,2.9C0,34.6,1.1,35.8,2.5,36z
				 M3.4,36c1.3-0.2,2.3-1.2,2.5-2.4c1.8,0,4.2,0,5.9,0c0.1,0.4,0.2,0.8,0.4,1.1c-2,1.6-5.3,4.5-7.3,6.1c-0.4-0.4-0.9-0.6-1.5-0.7
				C3.4,38.9,3.4,37.3,3.4,36z"/>
			<path id="Path_00000091722686314352545160000009882633589181942155_" class="st0" d="M41,33.1c0-1.6-1.3-2.9-2.9-2.9
				c-1.6,0-2.9,1.3-2.9,2.9c0,1.6,1.3,2.9,2.9,2.9C39.7,36,41,34.7,41,33.1z"/>
			<path id="Path_00000080198814854032798630000008428362485977647248_" class="st0" d="M14.6,55.9c1.6,0,2.9-1.3,2.9-2.9
				c0-1.6-1.3-2.9-2.9-2.9c-1.6,0-2.9,1.3-2.9,2.9C11.7,54.6,13,55.9,14.6,55.9z"/>
			<path id="Shape_00000071537639655443802920000003904597704532939965_" class="st0" d="M26.3,66c1.5,0,2.7-1.1,2.9-2.5h5.9
				c0.2,1.4,1.4,2.5,2.9,2.5c1.6,0,2.9-1.3,2.9-2.9c0-1.6-1.3-2.9-2.9-2.9c-1.5,0-2.7,1.1-2.9,2.5c-1.8,0-4.2,0-5.9,0
				c-0.2-1.3-1.2-2.3-2.5-2.4c0-1.3,0-2.9,0-4.4c1.4-0.2,2.5-1.4,2.5-2.9c0-1.6-1.3-2.9-2.9-2.9c-1.6,0-2.9,1.3-2.9,2.9
				c0,0.6,0.2,1.1,0.5,1.6l-7.3,6.3c-0.5-0.4-1.2-0.7-1.9-0.7c-1.5,0-2.7,1.1-2.9,2.5c-1.8,0-4.2,0-5.9,0c-0.2-1.3-1.2-2.3-2.5-2.4
				c0-1.3,0-3,0-4.4c1.4-0.2,2.5-1.4,2.5-2.9c0-1.6-1.3-2.9-2.9-2.9C1.3,50.1,0,51.4,0,53c0,1.5,1.1,2.7,2.5,2.9v4.4
				C1.1,60.5,0,61.7,0,63.1C0,64.7,1.3,66,2.9,66c1.5,0,2.7-1.1,2.9-2.5h5.9c0.2,1.4,1.4,2.5,2.9,2.5s2.7-1.1,2.9-2.5h5.9
				C23.7,64.9,24.9,66,26.3,66z M17.5,62.7c-0.1-0.4-0.2-0.8-0.4-1.1c2-1.7,5.3-4.6,7.3-6.3c0.4,0.3,0.9,0.6,1.5,0.7
				c0,1.3,0,3,0,4.4c-1.3,0.2-2.3,1.2-2.5,2.4C21.6,62.7,19.2,62.7,17.5,62.7z"/>
			<path id="Shape_00000095336748753061563600000011618334890472582023_" class="st0" d="M40.9,43.4c1.8,0,4.1,0,5.9,0
				c0.2,1.4,1.4,2.5,2.9,2.5c1.6,0,2.9-1.3,2.9-2.9c0-1.6-1.3-2.9-2.9-2.9c-1.5,0-2.7,1.1-2.9,2.5h-5.9c-0.2-1.4-1.4-2.5-2.9-2.5
				c-1.6,0-2.9,1.3-2.9,2.9c0,1.5,1.1,2.7,2.5,2.9c0,1.4,0,3,0,4.3c-1.4,0.2-2.5,1.4-2.5,2.9c0,1.6,1.3,2.9,2.9,2.9
				c0.8,0,1.4-0.3,2-0.7c2,1.7,5.1,4.4,7.3,6.4c-0.3,0.5-0.5,1-0.5,1.6c0,1.6,1.3,2.9,2.9,2.9c1.6,0,2.9-1.3,2.9-2.9
				c0-1.5-1.1-2.7-2.5-2.9v-4.4c1.4-0.2,2.5-1.4,2.5-2.9c0-1.6-1.3-2.9-2.9-2.9c-1.5,0-2.7,1.1-2.9,2.5c-1.9,0-4.2,0-5.9,0
				c-0.2-1.3-1.2-2.3-2.5-2.4c0-1.3,0-3,0-4.3C39.7,45.7,40.7,44.7,40.9,43.4z M40.9,53.5c1.7,0,4.1,0,5.9,0
				c0.2,1.3,1.2,2.3,2.5,2.4c0,1.4,0,3,0,4.4c-0.6,0.1-1.1,0.3-1.5,0.7c-2-1.7-5.3-4.6-7.3-6.4C40.7,54.2,40.9,53.9,40.9,53.5z"/>
		</g>
	</g>
</g>
</svg>
