<svg width="18px" height="15px" viewBox="0 0 18 15" version="1.1" xmlns="http://www.w3.org/2000/svg" xmlns:xlink="http://www.w3.org/1999/xlink">
    <g id="Page-1" stroke="none" stroke-width="1" fill="none" fill-rule="evenodd">
        <path class="svg-element" d="M10.9197007,0.170502088 C9.34560057,0.743712123 8.35065051,2.22079221 8.46351052,3.83746231 L8.50113052,4.46116235 L7.87149048,4.38493235 C5.57964034,4.09189233 3.57687022,3.09892227 1.87605012,1.43077217 L1.04445006,0.603132114 L0.831600051,1.21396215 C0.378180023,2.57620224 0.668250041,4.01566232 1.6127101,4.98388238 C2.11662013,5.51848242 2.00277012,5.59471242 1.13454007,5.2769224 C0.832590051,5.17495239 0.567270035,5.09872239 0.542520033,5.13733239 C0.454410028,5.2264324 0.756360046,6.38473247 0.995940061,6.8440925 C1.32363008,7.48165254 1.99089012,8.10436257 2.72151017,8.4746226 L3.33927021,8.76766262 L2.60766016,8.77855262 C1.90278012,8.77855262 1.87704012,8.79142262 1.95327012,9.05971263 C2.20473014,9.88735268 3.1996802,10.7664727 4.30848026,11.1486128 L5.08959031,11.4159128 L4.40946027,11.8237928 C3.40164021,12.4108628 2.21760014,12.7415229 1.03356006,12.7652829 C0.466290029,12.7781529 0,12.8286429 0,12.8672529 C0,12.9939729 1.53747009,13.7067729 2.43045015,13.9879329 C5.11335031,14.815573 8.30016051,14.458183 10.6929907,13.0454529 C12.3938108,12.0396128 14.0936409,10.0398127 14.8876209,8.10337257 C15.3162909,7.07278251 15.743971,5.1878224 15.743971,4.28395234 C15.743971,3.6978723 15.781591,3.6216423 16.486471,2.92171226 C16.902271,2.51383223 17.2923311,2.0683322 17.3685611,1.9416122 C17.4952811,1.69906218 17.4814211,1.69906218 16.839901,1.91587219 C15.769711,2.29801222 15.618241,2.24752222 16.147891,1.67431218 C16.537951,1.26643215 17.004241,0.52789211 17.004241,0.312072096 C17.004241,0.274452094 16.815151,0.337812098 16.601311,0.451662105 C16.374601,0.579372113 15.870691,0.770442124 15.492511,0.884292131 L14.8123809,1.10110214 L14.1956109,0.679362119 C13.8550509,0.450672105 13.3778708,0.195252089 13.1254208,0.119022084 C12.4819208,-0.0591779265 11.4998407,-0.0334379249 10.9197007,0.170502088 Z" id="Path" fill="#000000" fill-rule="nonzero"></path>
    </g>
</svg>